# xmcd
#
# Track frame offsets:
#	150
#	13255
#	27820
#	42600
#	66857
#	81810
#	93637
#	115077
#	131215
#	141257
#	174057
#	188060
#	214720
#	227212
#	229967
#	246962
#	261407
#
# Disc length: 3673 seconds
#
# Revision: 0
# Processed by: cddbd v1.5.2PL0 Copyright (c) Steve Scherf et al.
# Submitted via: EasyCDDAExtractor 16.0.8.2
#
DISCID=f60e5711
DTITLE=Συλλογικός δίσκος - Μαγνησία Μουσ. παραδόσεις 1
DYEAR=2001
DGENRE=Παραδοσιακή
TTITLE0=Νούκουτος Ρήγας - Τα μαύρα σου τα μάτια
TTITLE1=Άνευ ερμηνευτού - Καραμπασιώτικο
TTITLE2=Γλαφυριώτης Απόστολος - Όλες οι μάννες τα παιδιά
TTITLE3=Γλαφυριώτης Απόστολος - Χορέψτε δυό μου μάτια (''Τσιγκριστό'') κ μπάλλ
TTITLE3=ος
TTITLE4=Χορωδία Συλλόγου Ε.Δ.Ρ.Α.Μ.Ε. - Νερατζούλα
TTITLE5=Γερόπουλος Γιάννης-Χορ. Συλλ. Ε.Δ.Ρ.Α.Μ.Ε. - Κάτω στο Δαφνοπόταμο
TTITLE6=Καραγκούνης Κωνσταντίνος-Χορ. Συλλ. Ε.Δ.Ρ.Α.Μ.Ε. - Το νερατζοφίλημα
TTITLE7=Μανώλης Αντώνης - Παπαδημητροπούλα
TTITLE8=Μανώλης Αντώνης - Ένα πουλί θαλασσινό
TTITLE9=Μανιάτης Θανάσης - Ζωγράφε και Αννούλι μου (''Αργίτικο'')
TTITLE10=Κρασσάς Δημ.-Πολύζος Θ.-Χορ. Συλλ. Ε.Δ.Ρ.Α.Μ.Ε. - Αχείλι μου μελαχροι
TTITLE10=νό
TTITLE11=Χορωδία Συλλόγου Ε.Δ.Ρ.Α.Μ.Ε. - Η Καμάρα
TTITLE12=Λιάπη Ελένη - Νυχτοκάλαντα των Φώτων και Παινέματα
TTITLE13=Λιάπη Ελένη - Ο Μάης
TTITLE14=Γλαφυριώτης Απόστολος - Μπροστά τραβάει Αυγερινός (''Σμυρνιό'')
TTITLE15=Άνευ ερμηνευτού - Πατινάδα ''του γαμπρού''
TTITLE16=Άνευ ερμηνευτού - Πατινάδα ''του κουμπάρου''
EXTD=
EXTT0=
EXTT1=
EXTT2=
EXTT3=
EXTT4=
EXTT5=
EXTT6=
EXTT7=
EXTT8=
EXTT9=
EXTT10=
EXTT11=
EXTT12=
EXTT13=
EXTT14=
EXTT15=
EXTT16=
PLAYORDER=
